<svg width="35" height="35" viewBox="0 0 35 35" fill="none" xmlns="http://www.w3.org/2000/svg">
<circle cx="17.5" cy="13.125" r="5.83333" fill="white"/>
<circle cx="24.7916" cy="13.125" r="4.375" fill="white"/>
<circle cx="10.2084" cy="13.125" r="4.375" fill="white"/>
<path d="M24.7921 18.958C28.6522 18.9583 30.01 23.1294 30.4425 25.1621C30.5656 25.7408 30.1113 26.25 29.5197 26.25H25.6193C25.0315 24.0486 23.8956 21.5516 21.6974 20.125C22.488 19.4267 23.4996 18.958 24.7921 18.958Z" fill="white"/>
<path d="M10.2078 18.958C11.5 18.958 12.511 19.4269 13.3015 20.125C11.1037 21.5516 9.96836 24.0488 9.38062 26.25H5.47925C4.88787 26.2497 4.43431 25.7406 4.55738 25.1621C4.98987 23.1294 6.3476 18.9582 10.2078 18.958Z" fill="white"/>
<path d="M17.5 20.4166C23.2616 20.4166 24.4706 25.8797 24.7243 28.1724C24.7851 28.7214 24.344 29.1666 23.7917 29.1666H11.2084C10.6561 29.1666 10.215 28.7214 10.2758 28.1724C10.5295 25.8797 11.7385 20.4166 17.5 20.4166Z" fill="white"/>
</svg>
