<svg width="35" height="35" viewBox="0 0 35 35" fill="none" xmlns="http://www.w3.org/2000/svg">
<path d="M2.91663 11.2916C2.91663 9.40601 2.91663 8.4632 3.50241 7.87741C4.0882 7.29163 5.03101 7.29163 6.91663 7.29163H28.0833C29.9689 7.29163 30.9117 7.29163 31.4975 7.87741C32.0833 8.4632 32.0833 9.40601 32.0833 11.2916V13.5833C32.0833 14.0547 32.0833 14.2904 31.9368 14.4368C31.7904 14.5833 31.5547 14.5833 31.0833 14.5833H3.91662C3.44522 14.5833 3.20952 14.5833 3.06307 14.4368C2.91663 14.2904 2.91663 14.0547 2.91663 13.5833V11.2916Z" fill="white"/>
<path d="M31.083 17.5C31.5542 17.5 31.7901 17.5002 31.9365 17.6465C32.083 17.7929 32.083 18.0286 32.083 18.5V28.083C32.083 29.9686 32.0829 30.9113 31.4971 31.4971C30.9113 32.0829 29.9686 32.083 28.083 32.083H6.91699C5.03137 32.083 4.08872 32.0829 3.50293 31.4971C2.91714 30.9113 2.91699 29.9686 2.91699 28.083V18.5C2.91699 18.0286 2.91703 17.7929 3.06348 17.6465C3.20994 17.5002 3.44576 17.5 3.91699 17.5H31.083ZM11.208 26.25C10.7368 26.25 10.5009 26.2501 10.3545 26.3965C10.2082 26.5429 10.208 26.7788 10.208 27.25V28.167C10.208 28.6382 10.2081 28.8741 10.3545 29.0205C10.5009 29.1669 10.7368 29.167 11.208 29.167H15.042C15.5132 29.167 15.7491 29.1669 15.8955 29.0205C16.0419 28.8741 16.042 28.6382 16.042 28.167V27.25C16.042 26.7788 16.0418 26.5429 15.8955 26.3965C15.7491 26.2501 15.5132 26.25 15.042 26.25H11.208ZM19.958 26.25C19.4868 26.25 19.2509 26.2501 19.1045 26.3965C18.9582 26.5429 18.958 26.7788 18.958 27.25V28.167C18.958 28.6382 18.9581 28.8741 19.1045 29.0205C19.2509 29.1669 19.4868 29.167 19.958 29.167H23.792C24.2632 29.167 24.4991 29.1669 24.6455 29.0205C24.7919 28.8741 24.792 28.6382 24.792 28.167V27.25C24.792 26.7788 24.7918 26.5429 24.6455 26.3965C24.4991 26.2501 24.2632 26.25 23.792 26.25H19.958ZM11.208 20.417C10.7368 20.417 10.5009 20.4171 10.3545 20.5635C10.2084 20.7099 10.208 20.9459 10.208 21.417V22.333C10.208 22.8041 10.2084 23.0401 10.3545 23.1865C10.5009 23.3329 10.7368 23.333 11.208 23.333H15.042C15.5132 23.333 15.7491 23.3329 15.8955 23.1865C16.0416 23.0401 16.042 22.8041 16.042 22.333V21.417C16.042 20.9459 16.0416 20.7099 15.8955 20.5635C15.7491 20.4171 15.5132 20.417 15.042 20.417H11.208ZM19.958 20.417C19.4868 20.417 19.2509 20.4171 19.1045 20.5635C18.9584 20.7099 18.958 20.9459 18.958 21.417V22.333C18.958 22.8041 18.9584 23.0401 19.1045 23.1865C19.2509 23.3329 19.4868 23.333 19.958 23.333H23.792C24.2632 23.333 24.4991 23.3329 24.6455 23.1865C24.7916 23.0401 24.792 22.8041 24.792 22.333V21.417C24.792 20.9459 24.7916 20.7099 24.6455 20.5635C24.4991 20.4171 24.2632 20.417 23.792 20.417H19.958Z" fill="white"/>
<path d="M10.2084 4.375L10.2084 8.75" stroke="white" stroke-width="2" stroke-linecap="round"/>
<path d="M24.7916 4.375L24.7916 8.75" stroke="white" stroke-width="2" stroke-linecap="round"/>
</svg>
