<svg width="35" height="35" viewBox="0 0 35 35" fill="none" xmlns="http://www.w3.org/2000/svg">
<path d="M8.3418 2.68557C9.39203 1.78761 11.0025 2.04087 14.2227 2.54689L24.3291 4.13479C25.9417 4.3882 26.7485 4.51501 27.2285 5.07619C27.7085 5.63748 27.708 6.45441 27.708 8.08693V26.9121C27.708 28.5443 27.7082 29.3606 27.2285 29.9219C26.7485 30.4832 25.9418 30.6099 24.3291 30.8633L14.2227 32.4522C11.0024 32.9582 9.39202 33.2106 8.3418 32.3125C7.29179 31.4144 7.29199 29.7843 7.29199 26.5244V18.5H16.877L12.3438 24.167L13.125 24.791L13.9053 25.416L19.7393 18.124L20.2383 17.5L19.7393 16.875L13.9053 9.58303L13.125 10.208L12.3438 10.833L16.8779 16.5H7.29199V8.47463C7.29199 5.21452 7.29152 3.58369 8.3418 2.68557Z" fill="#2A668C"/>
</svg>
