<svg width="26" height="26" viewBox="0 0 26 26" fill="none" xmlns="http://www.w3.org/2000/svg">
<path d="M13.4346 6.73071C14.9181 9.07827 16.9208 11.0667 19.2959 12.5354L8.52249 23.3098C8.09746 23.7348 7.88512 23.9474 7.62405 24.0872C7.42829 24.1919 7.21376 24.2516 6.87014 24.3245L6.47854 24.4045L1.11038 25.4778C0.777766 25.5443 0.611234 25.5773 0.516626 25.4827C0.42236 25.3881 0.455104 25.2219 0.521509 24.8899L1.59573 19.5208C1.7136 18.9314 1.77241 18.6363 1.91213 18.3752C2.05187 18.1143 2.26454 17.9017 2.68948 17.4768L13.4346 6.73071ZM20.791 0.203369C21.6195 0.203369 22.2868 0.870036 23.6201 2.20337L23.7959 2.38013C25.1292 3.71345 25.7959 4.37984 25.7959 5.20825C25.7959 6.03668 25.1293 6.70304 23.7959 8.03638L20.753 11.0784C18.3271 9.67382 16.3107 7.67144 14.8887 5.27661L17.9629 2.20337C19.296 0.870285 19.9628 0.203616 20.791 0.203369Z" fill="white"/>
</svg>
