<svg width="35" height="35" viewBox="0 0 35 35" fill="none" xmlns="http://www.w3.org/2000/svg">
<path d="M23.3334 24.7084C23.3334 26.3652 24.6765 27.7084 26.3334 27.7084H27.625C29.2819 27.7084 30.625 26.3652 30.625 24.7084V9.75004C30.625 9.19776 30.1773 8.75004 29.625 8.75004H23.8334C23.5572 8.75004 23.3334 8.9739 23.3334 9.25004V24.7084Z" fill="white"/>
<path d="M19.875 5.83301C20.9795 5.83301 21.8748 6.72859 21.875 7.83301V26.167C21.8752 27.8237 23.2183 29.167 24.875 29.167H7.375C5.71826 29.167 4.37518 27.8237 4.375 26.167V7.83301C4.37518 6.72859 5.27054 5.83301 6.375 5.83301H19.875ZM8.29199 8.75C7.73971 8.75 7.29199 9.19772 7.29199 9.75V13.583C7.29199 14.1353 7.73971 14.583 8.29199 14.583H17.958C18.5103 14.583 18.958 14.1353 18.958 13.583V9.75C18.958 9.19772 18.5103 8.75 17.958 8.75H8.29199Z" fill="white"/>
</svg>
