<svg width="35" height="35" viewBox="0 0 35 35" fill="none" xmlns="http://www.w3.org/2000/svg">
<path d="M18.958 5.83301C23.0544 5.83301 25.1029 5.83331 26.5742 6.81641C27.2111 7.24199 27.758 7.78886 28.1836 8.42578C29.1667 9.89709 29.167 11.9456 29.167 16.042C29.167 20.1379 29.1665 22.186 28.1836 23.6572C27.758 24.2941 27.2111 24.841 26.5742 25.2666C25.289 26.1254 23.5634 26.2343 20.417 26.248V26.25L18.8047 29.4746C18.2673 30.5495 16.7327 30.5495 16.1953 29.4746L14.583 26.25V26.248C11.4366 26.2343 9.71104 26.1254 8.42578 25.2666C7.78892 24.841 7.24196 24.2941 6.81641 23.6572C5.83347 22.186 5.83301 20.1379 5.83301 16.042C5.83301 11.9456 5.83331 9.89709 6.81641 8.42578C7.24199 7.78886 7.78886 7.24199 8.42578 6.81641C9.89709 5.83331 11.9456 5.83301 16.042 5.83301H18.958ZM13.125 17.958C12.5728 17.958 12.1252 18.4059 12.125 18.958C12.125 19.5103 12.5727 19.958 13.125 19.958H17.5L17.6025 19.9531C18.1067 19.9018 18.5 19.4757 18.5 18.958C18.4998 18.4405 18.1065 18.0152 17.6025 17.9639L17.5 17.958H13.125ZM13.125 12.125C12.5727 12.125 12.125 12.5727 12.125 13.125C12.125 13.6773 12.5727 14.125 13.125 14.125H21.875C22.4273 14.125 22.875 13.6773 22.875 13.125C22.875 12.5727 22.4273 12.125 21.875 12.125H13.125Z" fill="white"/>
</svg>
