<svg width="35" height="35" viewBox="0 0 35 35" fill="none" xmlns="http://www.w3.org/2000/svg">
<path d="M27.7083 27.7084H7.29163" stroke="white" stroke-width="2" stroke-linecap="round"/>
<path d="M14.0417 11.6666H12.2084C11.1038 11.6666 10.2084 12.5621 10.2084 13.6666V21.3333C10.2084 22.4379 11.1038 23.3333 12.2084 23.3333H14.0417C15.1463 23.3333 16.0417 22.4379 16.0417 21.3333V13.6666C16.0417 12.5621 15.1463 11.6666 14.0417 11.6666Z" fill="white"/>
<path d="M22.7917 5.83337H20.9584C19.8538 5.83337 18.9584 6.7288 18.9584 7.83337V21.3334C18.9584 22.4379 19.8538 23.3334 20.9584 23.3334H22.7917C23.8963 23.3334 24.7917 22.4379 24.7917 21.3334V7.83337C24.7917 6.7288 23.8963 5.83337 22.7917 5.83337Z" fill="white"/>
</svg>
